<?xml version="1.0" encoding="utf-8"?>
<!-- Generator: Adobe Illustrator 15.0.2, SVG Export Plug-In  -->
<!DOCTYPE svg PUBLIC "-//W3C//DTD SVG 1.1//EN" "http://www.w3.org/Graphics/SVG/1.1/DTD/svg11.dtd" [
	<!ENTITY ns_flows "http://ns.adobe.com/Flows/1.0/">
]>
<svg version="1.1"
	 xmlns="http://www.w3.org/2000/svg" xmlns:xlink="http://www.w3.org/1999/xlink" xmlns:a="http://ns.adobe.com/AdobeSVGViewerExtensions/3.0/"
	 x="0px" y="0px" width="557px" height="749px" viewBox="-5.428 -3.547 557 749" enable-background="new -5.428 -3.547 557 749"
	 xml:space="preserve">
<defs>
</defs>
<path fill="#F15A29" d="M369.739,9.126c55.999-4.544,73.359,57.534,83.738,126.557c10.378,69.02-16.104,135.44-27.967,161.324
	c-7.179,15.661-7.419,50.539,6.199,76.368c13.615,25.824,51.598,104.072,61.799,151.667
	c10.202,47.597,67.022,328.196,66.727,366.312c-0.292,38.114,22.586,176.512-32.598,191.187
	c-55.376,14.724-95.096-113.06-105.297-160.655c-10.203-47.597-60.913-323.687-65.197-369.788
	c-4.284-46.101,10.142-134.906,18.218-162.205c8.08-27.301-1.267-70.523-8.056-82.217c-6.789-11.69-66.499-71.274-71.414-140.521
	S313.288,13.706,369.739,9.126z"/>
<path fill="#F7941E" d="M511.417,638.303c8.797,3.699,23.068,77.654,16.193,81.111c-43.688,21.961-69.808,108.701-123.416,56.081
	c-11.443-11.229-22.507-48.836-9.056-47.001C443.291,735.057,457.318,615.545,511.417,638.303z"/>
<path fill="#F7941E" d="M484.772,511.9c8.795,3.699,20.23,53.565,13.351,57.023c-43.684,21.961-68.265,109.584-121.873,56.967
	c-11.441-11.231-19.376-37.119-5.924-35.284C418.476,597.169,430.677,489.141,484.772,511.9z"/>
<path fill="#96350F" d="M462.958,133.267C452.581,64.246,424.068-4.33,368.068,0.214c-56.451,4.583-83.94,99.623-79.025,168.865
	c4.914,69.248,63.765,129.062,70.555,140.753c6.792,11.691,20.552,47.298,12.474,74.601c-8.08,27.3-26.059,123.491-21.776,169.595
	c4.282,46.101,53.276,322.648,63.476,370.243c10.203,47.596,53.223,184.009,116.407,167.824
	c63.182-16.187,38.383-164.811,38.679-202.929c0.295-38.113-56.524-318.715-66.728-366.308
	c-10.2-47.598-48.185-125.841-61.801-151.67c-13.617-25.829-11.604-57.496-4.426-73.155
	C447.767,272.146,473.337,202.289,462.958,133.267z M427.561,387.163c14.537,20.058,50.511,103.44,59.339,138.362
	c8.824,34.924,62.625,308.197,63.6,344.752c0.976,36.549,24.838,197.232-25.9,208.883c-50.739,11.649-89.497-142.769-95.75-171.477
	c-6.251-28.705-65.79-325.303-65.423-358.528c0.367-33.228,9.341-125.8,16.036-154.268c6.696-28.468-0.768-87.681-9.323-97.367
	c-8.561-9.688-64.349-62.032-67.826-128.747c-3.477-66.712,27.509-148.864,63.93-154.115c47.931-6.907,74.216,80.115,77.451,123.426
	c4.468,59.851-20.059,130.488-28.723,149.817C406.306,307.229,413.023,367.099,427.561,387.163z"/>
<path d="M270.637,27.509c-10.13,3.429-65.502-6.386-90.994,20.023c-25.494,26.41-24.586,39.05-24.173,47.532
	c0.413,8.479-0.166,17.837-3.61,27.954c-3.444,10.116,1.636,61.527,12.707,70.856c11.066,9.326,22.926,12.924,20.29,24.665
	c-2.633,11.745-2.818,57.194,6.873,70.568c9.691,13.373,22.408,17.354,27.832,14.685c5.424-2.668,7.789,1.612,8.703,5.048
	c0.915,3.438,4.225,22.806,28.399,23.741c24.173,0.93,131.575-58.916,143.427-74.34c11.852-15.418,16.531-48.566,14.369-68.236
	c-2.162-19.676-9.97-51.338-15.846-59.592c-5.874-8.252-7.775-20.633-5.858-31.572c1.918-10.938-1.492-60.713-17.521-65.894
	C318.768,14.709,270.637,27.509,270.637,27.509z"/>
<path fill="#FFFFFF" d="M352.426,42.075c9.356,0.581,30.451,36.079,22.377,54.177c-8.071,18.093-15.479,22.521-10.294,32.798
	c5.186,10.277,47.377,81.269,32.082,106.806c-15.297,25.542-80.933,60.178-84.791,61.816c-3.861,1.639-0.641-13.94,5.831-13.82
	c12.099,0.223,32.998-24.731,33.616-31.639c0.612-6.916-2.157-28.881-6.053-29.682c-3.894-0.806-5.846,3.392-10.126,5.759
	c-4.28,2.365-10.581,4.043-6.65,7.291c3.932,3.249,4.412,25.817-15.534,38.484c-19.947,12.665-2.611,17.872-28.096,35.077
	c-25.49,17.21-46.065,6.729-48.344-11.07c-2.28-17.8-8.668-2.605-14.4-1.082c-5.729,1.526-18.431-20.864-21.438-29.88
	c-3.012-9.016-6.322-51.452-1.343-58.113c4.977-6.659-2.125-10.292-6.208-14.112c-4.084-3.823-34.886-34.284-26.837-73.236
	c8.049-38.947,19.637-4.604,16.603-34.473c-3.034-29.871,23.08-41.195,34.271-43.007c19.119-3.089,24.662,4.488,22.223,7.436
	c-2.437,2.948-2.382,6.616,2.859,3.839c5.247-2.771,14.197-17.577,36.646-9.281c28.536,10.543,30.727,23.862,30.047,40.323
	l12.811-8.927c-2.303-24.234-15.397-19.834-10.29-31.773C316.494,33.842,352.426,42.075,352.426,42.075z"/>
<path d="M281.251,72.047c15.506-1.67,14.974,49.395,3.054,50.723C272.391,124.096,265.743,73.719,281.251,72.047z"/>
<path d="M243.658,87.564c12.855-4.698,18.447,50.922,6.265,53.549C237.738,143.74,231.359,92.065,243.658,87.564z"/>
<path d="M220.484,182.684c8.722,1.279,27.876,7.929,46.79-6.305c18.915-14.231,23.837-24.131,29.138-29.219
	c5.298-5.092,8.901,8.99,6.246,23.491c-2.156,11.767-15.724,70.438-45.206,70.305c-29.485-0.137-41.224-35.052-44.655-43.341
	C209.365,189.323,205.249,180.45,220.484,182.684z"/>
<path fill="#2BB673" d="M279.275,384.696c0,0,118.389,63.513,147.043,91.039c28.654,27.527,64.026,46.353,76.17,60.388
	c12.146,14.036,1.151,54.491-8.023,86.624c-9.176,32.133-31.157,78.636-33.472,104.723s-2.521,96.747,1.608,120.748
	c4.129,24-5.108,82.825-9.863,105.969c-4.754,23.143-4.044,70.181-18.028,73.657c-13.984,3.477-183.42,5.298-210.732,4.35
	s-41.801,0.434-33.729-11.204c8.074-11.637,18.742-34.022,15.197-41.587c-3.545-7.563-16.82-72.323-10.754-106.563
	c6.069-34.236,40.277-97.407,29.34-132.637c-10.937-35.229,29.898-122.546,29.898-122.546L279.275,384.696z"/>
<path fill="#004C26" d="M178.414,671.642c0,0,237.978-63.126,255.423-70.891c17.445-7.765,18.256-28.362,3.472-18.143
	c-14.786,10.222-23.564,13.391-35.609,16.82c-12.044,3.432-175.89,50.249-175.89,50.249L178.414,671.642z"/>
<path fill="#004C26" d="M516.119,531.013c-13.493-14.624-40.083-28.712-71.949-57.364c-31.865-28.652-172.84-104.051-172.84-104.051
	l-27.226,239.951c0,0-46.133,91.64-34.113,128.455c12.023,36.815-20.445,93.626-27.421,129.502
	c-6.978,35.874,7.697,106.149,11.614,114.049c3.918,7.899-12.135,33.005-21.224,45.23c-9.089,12.229,4.786,16.044,35.304,16.881
	c30.518,0.835,219.882-2.038,235.527-5.758c15.646-3.719,15.122-52.955,20.567-77.209c5.446-24.256,16.107-85.886,11.629-110.987
	c-4.478-25.103-3.844-99.068-1.108-126.392c2.736-27.323,27.565-76.128,38.002-109.816
	C523.319,579.813,529.611,545.637,516.119,531.013z M434.468,1027.801c-13.983,3.476-183.421,5.297-210.732,4.349
	c-27.313-0.946-41.803,0.432-33.729-11.203c5.444-7.85,12.065-20.585,14.714-30.367l242.798,3.465
	C445.365,1010.966,442.114,1025.897,434.468,1027.801z M494.222,622.703c-9.176,32.132-31.155,78.636-33.471,104.723
	c-2.315,26.088-2.522,96.746,1.607,120.746c4.129,24.002-5.109,82.825-9.862,105.97c-1.544,7.519-2.514,17.563-3.598,27.814
	l-243.688-2.581c-0.003-0.007-0.004-0.014-0.007-0.017c-3.544-7.565-16.821-72.323-10.753-106.56
	c6.068-34.239,40.277-97.411,29.339-132.638c-10.938-35.229,29.898-122.548,29.898-122.548l25.344-232.962
	c0,0,118.389,63.512,147.044,91.04c28.655,27.527,64.025,46.353,76.17,60.388C514.391,550.117,503.397,590.57,494.222,622.703z"/>
<path fill="#FFFFFF" d="M311.094,523.933c-25.128,94.507-94.977,139.582-148.331,136.279C81.818,655.2,49.77,575.237,79.046,486.43
	c29.278-88.809,85.246-119.084,153.852-114.729C302.25,376.102,327.988,460.387,311.094,523.933z"/>
<path fill="#D1D3D4" d="M179.489,537.387l51.153,79.667c0,0,27.156-9.569,45.826-45.563c18.672-35.991,18.285-63.846,18.285-63.846
	L193.85,493.732L179.489,537.387z"/>
<ellipse transform="matrix(0.9879 0.1548 -0.1548 0.9879 68.354 -18.7079)" cx="154.264" cy="429.417" rx="10.406" ry="21.04"/>
<path d="M156.625,430.882l0.002-0.012l-0.075-0.013c-2.193-0.679-80.47-14.384-80.47-14.384l-3.063,17.177l17.919,5.029l1.946-9.531
	l55.267,11.118c26.318,4.577,43.187,33.975,37.675,65.662c-5.51,31.683-32.341,56.207-58.661,51.631l-58.189-11.306l4-19.594
	l-3.011-0.979l-17.863,28.65l78.981,14.262c31.498,2.274,60.951-23.234,67.252-59.472
	C204.535,473.488,186.155,440.063,156.625,430.882z"/>
<path d="M236.275,359.744c-74.295-4.715-134.904,28.071-166.609,124.242c-31.706,96.173,3,182.769,90.659,188.195
	c57.778,3.579,133.419-45.236,160.631-147.581C339.252,455.787,311.38,364.512,236.275,359.744z M311.094,523.933
	c-25.128,94.507-94.977,139.582-148.331,136.279C81.818,655.2,49.77,575.237,79.046,486.43
	c29.278-88.809,85.246-119.084,153.852-114.729C302.25,376.102,327.988,460.387,311.094,523.933z"/>
<path fill="#FFFFFF" d="M185.826,505.929c-5.51,31.683-32.341,56.207-58.661,51.631l-58.189-11.306l23.907-117.105l55.267,11.118
	C174.469,444.844,191.337,474.241,185.826,505.929z"/>
<path d="M127.043,496.353c-6.62,38.066-40.171,64.026-74.94,57.979c-34.764-6.047-57.58-41.811-50.96-79.878
	c6.621-38.068,40.171-64.027,74.939-57.98C110.847,422.521,133.664,458.281,127.043,496.353z"/>
<path fill="#FFFFFF" d="M111.864,492.377c-5.413,31.12-31.842,52.518-59.036,47.788c-27.188-4.729-44.843-33.793-39.43-64.913
	c5.411-31.122,31.842-52.517,59.034-47.789C99.622,432.193,117.276,461.256,111.864,492.377z"/>
<ellipse transform="matrix(0.9852 0.1713 -0.1713 0.9852 83.6447 -3.2187)" fill="#BCBEC0" cx="60.469" cy="482.957" rx="33.975" ry="38.887"/>
<path fill="#808285" d="M41.993,472.421c-5.772,27.102,11.813,48.848,11.813,48.848c-18.484-3.216-30.487-22.976-26.809-44.133
	c3.68-21.159,21.649-35.706,40.136-32.489C67.132,444.646,47.199,447.978,41.993,472.421z"/>
<ellipse transform="matrix(0.9879 0.1549 -0.1549 0.9879 70.1616 -29.5319)" cx="224.547" cy="435.366" rx="12.689" ry="24.385"/>
<path d="M148.918,634.512c14.724-0.731,34.208-36.437,36.505-53.868c2.297-17.431-9.073-18.772-22.623-5.576
	c-24.121,23.494-49.266,8.152-59.839,8.497c-9.205,0.302-22.507,4.061-5.936,23.885C105.712,617.839,128.23,635.538,148.918,634.512
	z"/>
<path fill="#158654" d="M405.906,641.618c25.812-5.472,30.725-26.512,27.542-30.365c-3.184-3.851-36.443,11.55-51.377,14.8
	c-14.931,3.252-128.088,33.684-133.902,34.149c-5.814,0.467-13.508,37.632-13.717,50.379c-0.209,12.748,0.577,22.541,5.195,23.813
	c4.619,1.271,14.043-34.802,54.221-56.092C334.045,657.009,366.738,649.92,405.906,641.618z"/>
</svg>
