<?xml version="1.0" encoding="utf-8"?>
<!-- Generator: Adobe Illustrator 15.0.2, SVG Export Plug-In  -->
<!DOCTYPE svg PUBLIC "-//W3C//DTD SVG 1.1//EN" "http://www.w3.org/Graphics/SVG/1.1/DTD/svg11.dtd" [
	<!ENTITY ns_flows "http://ns.adobe.com/Flows/1.0/">
]>
<svg version="1.1"
	 xmlns="http://www.w3.org/2000/svg" xmlns:xlink="http://www.w3.org/1999/xlink" xmlns:a="http://ns.adobe.com/AdobeSVGViewerExtensions/3.0/"
	 x="0px" y="0px" width="557px" height="749px" viewBox="-1.907 -2.853 557 749" enable-background="new -1.907 -2.853 557 749"
	 xml:space="preserve">
<defs>
</defs>
<path fill="#2B3990" d="M399.454,360.782c31.912-17.946,7.969-53.918-16.905-72.223c-24.871-18.309-30.142-63.472-0.265-79.849
	c29.881-16.376,78.763-21.813,104.761,29.327c26,51.139-34.38,66.3-8.929,84.355c25.452,18.055,60.449-23.045,60.449-23.045
	l7.756,4.124c0,0-18.867,35.253-48.091,37.61c-29.225,2.357-46.228-14.394-43.04-37.345c3.192-22.95,37.945-34.089,8.458-72.753
	c-14.389-18.871-41.276-28.316-67.876-13.834c-26.594,14.485-13.647,51.09,8.991,69.182c22.638,18.09,33.233,41.712,22.452,65.04
	C416.438,374.704,367.543,378.729,399.454,360.782z"/>
<path d="M350.652,116.84c14.118,49.257-65.499,136.839-81.694,150.593c-16.195,13.751-40.165,34.914-42.486,39.359
	c-10.614,20.326-3.553,27.478-20.566,50.229c-15.203,20.34-58.808,52.834-90.008,22.898c-7.46-7.159-13.1-22.958-28.259-16.578
	c-15.157,6.379-66.55,9.713-80.714-7.703c-14.163-17.419-3.199-44.455,2.913-52.731c4.385-5.944,1.703-16.247-0.69-29.876
	c-6.905-39.273-7.606-126.013,6.067-172.122C28.89,54.799,56.318,14.325,92.361,4.543c36.045-9.782,85.987-4.333,104.849,21.881
	c14.109,19.609,29.449,41.899,48.607,37.596C268.771,58.864,328.491,39.522,350.652,116.84z"/>
<path fill="#FFFFFF" d="M39.457,300.378c10.376,1.352,13.104,1.311,23.334-4.565c0,0-24.296-9.909-34.125-37.61
	C21.199,237.164,2.643,90.894,71.479,38.479c68.835-52.411,115.506-0.079,125.491,17.255c11.047,19.172,36.498,30.943,55.148,28.105
	c18.648-2.843,82.591-11.933,82.57,41.855c-0.022,55.521-80.754,142.012-114.975,163.847
	c-34.221,21.832-46.447,28.144-60.845,30.468c0,0,27.045,2.954,32.28,9.813c5.575,7.306-6.166,23.07-14.206,30.42
	c-8.043,7.356-19.351,16.265-34.339,8.806c-14.991-7.461-32.068-30.031-51.368-25.372c-19.294,4.656-60.038,16.845-67.193-6.933
	C16.888,312.971,29.081,299.028,39.457,300.378z"/>
<path d="M195.714,131.709c15.589,2.337,6.922,51.772-8.666,49.432C171.458,178.806,180.125,129.365,195.714,131.709z"/>
<path d="M255.26,142.301c11.019,4.774-6.494,49.39-20.383,44.739C220.99,182.393,241.596,136.382,255.26,142.301z"/>
<path d="M189.657,247.479c23.438,2.057,50.219-36.899,37.065-36.277c-8.116,0.374-13.321,5.192-22.706,4.13
	c-8.621-0.978-12.937-16.126-21.008-14.451C173.936,202.766,176.924,246.358,189.657,247.479z"/>
<path fill="#2B3990" d="M433.927,686.882c-31.495,8.579-202.065,53.438-228.314,53.035c-26.249-0.401-74.146-17.984-87.31-26.692
	c-13.166-8.716-11.337-35.563-7.371-49.066c3.966-13.502,19.989-61.362-15.057-110.427c-35.048-49.066-48.217-68.618-45.315-83.372
	c2.896-14.752,19.906-69.252,22.491-77.556c3.872-12.449,12.532-15.902,27.202-18.457c14.671-2.556,237.75-35.536,256.308-40.728
	c18.557-5.192,35.247,6.799,37.112,17.504c10.542,60.567,2.642,208.272,15.523,226.485
	C439.833,620.937,506.753,667.054,433.927,686.882z"/>
<path fill="#4BACE0" d="M86.805,429.53c-6.308-0.496-21.651,38.591-15.348,53.093c6.301,14.502,17.924,37.444,33.66,61.073
	c21.74,32.646,30.636,65.403,24.515,98.979c-2.936,16.115-13.163,46.936-0.331,58.21c5.239,4.604,43.639,24.455,64.285,21.264
	c7.566-1.17-17.127-9.901-20.139-28.45c-4.414-27.168,7.722-44.506,0.455-70.871C171.26,613.237,95.45,430.208,86.805,429.53z"/>
<path fill="#4BACE0" d="M370.289,378.988c-3.808,6.946-49.176,77.462-55.73,89.545c-6.113,11.265-16.575,12.382-25.338,14.061
	c-8.765,1.679-59.399,10.426-66.734,11.702c-7.335,1.276-20.342-1.281-26.011-5.12c-5.669-3.836-74.208-52.437-79.912-57.036
	c-5.701-4.603-17.756-6.372-14.233-1.44c7.607,10.653,75.756,171.682,79.839,183.704c4.084,12.029,7.413,29.688,6.023,38.598
	c-1.389,8.909-9.236,31.725-0.908,46.522c6.065,10.776,23.484,21.911,47.117,18.396c23.632-3.513,171.928-41.907,191.518-48.936
	c19.588-7.032,29.819-14.541,15.862-26.128c-13.954-11.588-56.456-57.019-56.495-79.47c-0.037-22.453-1.623-170.474-4.596-181.264
	C378.445,373.972,373.71,372.752,370.289,378.988z"/>
<path fill="#4BACE0" d="M283.158,471.76c7.977-1.464,14.586-0.071,22.835-14.773c8.249-14.702,53.636-89.299,58.997-98.356
	c2.861-4.834,10.284-17.077-5.101-14.322c-15.385,2.753-240.699,38.684-253.578,41.513c-12.88,2.826-9.985,10.541-5.546,15.495
	c4.442,4.95,83.884,65.325,92.222,71.021c8.827,6.03,14.511,12.209,27.24,10.973C232.955,482.07,274.951,473.265,283.158,471.76z"/>
<path d="M235.311,505.058c-14.356,2.785-2.833,45.602,12.476,41.595C263.098,542.639,249.375,502.329,235.311,505.058z"/>
<path d="M286.685,496.017c-16.331,1.04-12.278,44.876,2.769,44.208C304.5,539.556,303.021,494.979,286.685,496.017z"/>
<path d="M299.609,560.209c4.134,0.216,5.298,34.925-18.94,38.606c-24.244,3.688-39.515-30.479-29.675-31.976
	c8.079-1.225,12.175,8.989,24.765,7.014C290.593,571.528,288.693,559.649,299.609,560.209z"/>
</svg>
