<?xml version="1.0" encoding="utf-8"?>
<!-- Generator: Adobe Illustrator 15.0.2, SVG Export Plug-In  -->
<!DOCTYPE svg PUBLIC "-//W3C//DTD SVG 1.1//EN" "http://www.w3.org/Graphics/SVG/1.1/DTD/svg11.dtd" [
	<!ENTITY ns_flows "http://ns.adobe.com/Flows/1.0/">
]>
<svg version="1.1"
	 xmlns="http://www.w3.org/2000/svg" xmlns:xlink="http://www.w3.org/1999/xlink" xmlns:a="http://ns.adobe.com/AdobeSVGViewerExtensions/3.0/"
	 x="0px" y="0px" width="726px" height="726px" viewBox="-4.3 -4.268 726 726" enable-background="new -4.3 -4.268 726 726"
	 xml:space="preserve">
<defs>
</defs>
<path fill="#FFFFFF" d="M717.399,358.715c0,198.099-160.587,358.714-358.685,358.714C160.6,717.429,0,556.814,0,358.715
	C0,160.601,160.6,0,358.715,0C556.813,0,717.399,160.601,717.399,358.715z"/>
<path fill="#2BB673" d="M516.398,276.001l136.189-41.005L531.483,380.094l167.281,93.13c12.099-35.941,18.635-74.438,18.635-114.474
	c0-121.6-60.502-229.076-153.072-293.953L516.398,276.001z"/>
<path fill="#2BB673" d="M245.742,257.15L209.751,92.822l174.192,122.426L537.18,47.514C484.617,17.307,423.67,0.043,358.715,0.043
	c-149.423,0-277.495,91.35-331.431,221.232L245.742,257.15z"/>
<path fill="#2BB673" d="M249.65,492.98L89.769,516.728l98.676-120.586L16.207,251.792C5.676,285.569,0,321.502,0,358.75
	c0,172.095,121.205,315.884,282.889,350.675L249.65,492.98z"/>
<path fill="#2BB673" d="M480.788,481.089L304.779,713.435c17.585,2.65,35.602,4.029,53.936,4.029
	c147.281,0,273.822-88.77,329.073-215.729L480.788,481.089z"/>
<polygon fill="#2BB673" points="521.914,107.994 487.175,334.808 574.873,290.942 500.866,384.13 659.619,483.46 448.188,446.565 
	296.323,663.119 276.145,463.92 154.322,482.792 243.853,397.45 57.787,250.758 266.108,285.921 265.634,179.961 382.126,255.779 
	"/>
<path d="M515.362,243.005c25.719,35.61-31.953,130.839-41.163,146.644c-9.193,15.805-22.542,39.84-23.146,44.093
	c-2.758,19.481,5.052,23.189-2.19,46.493c-6.502,20.826-32.527,59.727-66.529,44.648c-8.14-3.578-17.284-14.691-27.758-5.137
	c-10.48,9.555-51.278,27.205-67.801,17.277c-16.551-9.914-15.444-34.914-12.873-43.369c1.847-6.063-3.305-13.59-9.195-23.893
	c-16.926-29.648-51.449-91.506-53.648-132.669c-2.204-41.156,17.284-89.675,43.734-108.059
	c26.459-18.377,68.613-28.506,91.521-12.859c17.112,11.703,36.02,25.215,50.358,16.164
	C413.813,221.504,475.034,187.108,515.362,243.005z"/>
<path fill="#FFFFFF" d="M297.264,483c8.809-1.938,11.005-2.766,17.629-10.48c0,0-22.607-0.918-38.605-20.401
	c-12.125-14.785-69.467-127.347-28.664-189.645c40.791-62.283,93.836-33.671,106.953-22.586c14.504,12.233,38.59,14.317,52.93,6.608
	c14.332-7.722,63.67-33.655,79.187,9.729c16.006,44.783-24.604,138.021-46.112,165.57c-21.502,27.571-29.598,36.213-40.646,42.283
	c0,0,22.823-5.494,29.074-1.486c6.645,4.267,1.652,20.408-2.767,28.677c-4.403,8.262-11.02,18.742-25.352,17.084
	c-14.346-1.66-34.733-14.885-49.086-5.512c-14.31,9.383-43.893,31.063-56.595,13.965C282.537,499.716,288.414,484.933,297.264,483z"
	/>
<path d="M376.443,298.874c13.605-0.374,13.605,42.62,0,42.995C362.852,342.234,362.852,299.232,376.443,298.874z"/>
<path d="M428.633,298.859c10.073,2.385,1.832,42.635-10.661,40.796C405.48,337.824,416.141,295.921,428.633,298.859z"/>
<path d="M388.547,397.436c20.237-1.789,37.178-38.671,26.1-36.178c-6.839,1.537-10.545,6.394-18.692,6.903
	c-7.463,0.466-13.39-11.673-19.985-9.044C368.512,362.062,377.563,398.404,388.547,397.436z"/>
</svg>
